<?xml version="1.0" standalone="no"?>
<!DOCTYPE svg PUBLIC "-//W3C//DTD SVG 20010904//EN"
 "http://www.w3.org/TR/2001/REC-SVG-20010904/DTD/svg10.dtd">
<svg version="1.0" xmlns="http://www.w3.org/2000/svg"
 width="1024.000000pt" height="1024.000000pt" viewBox="0 0 1024.000000 1024.000000"
 preserveAspectRatio="xMidYMid meet">

<g transform="translate(0.000000,1024.000000) scale(0.100000,-0.100000)"
fill="#F4A261" stroke="none">
<path d="M5113 8320 c-61 -13 -115 -43 -156 -89 -44 -49 -47 -53 -239 -371
-152 -250 -278 -457 -413 -675 -206 -334 -549 -899 -895 -1475 -147 -245 -311
-517 -365 -605 -54 -88 -182 -299 -285 -470 -103 -170 -216 -357 -252 -415
-99 -160 -831 -1383 -946 -1580 -36 -62 -68 -132 -78 -170 -29 -113 0 -217 84
-303 64 -66 126 -96 220 -107 106 -12 6664 -13 6769 0 169 19 283 120 313 279
22 119 6 159 -218 536 -102 170 -248 416 -325 545 -77 129 -181 303 -232 385
-186 303 -548 900 -762 1255 -121 201 -277 460 -348 575 -70 116 -174 287
-230 380 -56 94 -139 231 -185 305 -103 168 -327 536 -475 780 -61 102 -172
284 -246 405 -75 121 -196 321 -270 445 -184 309 -233 358 -379 374 -25 2 -64
1 -87 -4z m130 -1524 c18 -7 42 -24 53 -37 26 -28 135 -201 424 -669 335 -544
366 -593 495 -800 102 -163 301 -485 745 -1205 37 -60 114 -184 170 -275 118
-191 150 -251 150 -282 -1 -45 -37 -106 -81 -135 -37 -24 -52 -28 -111 -27
-59 0 -72 3 -92 25 -13 13 -75 107 -138 209 -63 102 -170 275 -238 385 -177
286 -371 600 -460 745 -42 69 -176 285 -297 480 -121 195 -263 425 -315 510
-52 85 -130 211 -173 280 -43 69 -105 169 -137 223 l-60 98 -47 -78 c-27 -43
-90 -145 -141 -228 -51 -82 -132 -215 -180 -295 -48 -80 -158 -260 -245 -400
-87 -140 -202 -327 -255 -415 -109 -180 -272 -447 -333 -545 -55 -88 -127
-213 -127 -220 0 -3 20 -6 44 -7 24 -1 55 -7 68 -13 39 -21 87 -72 98 -106 10
-30 14 -32 66 -36 55 -3 55 -3 78 37 13 22 59 99 103 170 43 72 171 281 282
465 112 184 265 436 340 559 75 123 149 233 164 245 39 29 131 29 169 1 26
-20 265 -396 618 -975 106 -173 260 -423 343 -555 82 -131 156 -254 163 -272
30 -71 6 -151 -57 -188 -33 -20 -54 -20 -1135 -23 -870 -2 -1109 0 -1140 10
-51 17 -94 78 -102 148 -7 50 -8 51 -23 34 -10 -11 -62 -93 -117 -184 -55 -91
-127 -210 -161 -265 l-61 -100 1789 -3 1789 -2 32 -37 c40 -45 60 -91 60 -138
0 -40 -27 -101 -58 -128 -53 -48 25 -46 -2012 -46 -1053 0 -1935 4 -1960 8
-94 19 -156 135 -116 219 21 43 213 361 232 383 8 8 14 19 14 22 0 4 -38 7
-85 7 -95 0 -128 11 -168 59 -32 39 -41 88 -23 137 7 21 120 212 251 424 131
212 322 522 425 690 103 168 251 409 330 535 78 127 191 309 250 405 351 572
663 1075 693 1117 16 23 44 49 61 57 39 19 106 20 149 2z"/>
<path d="M4985 4608 c-109 -183 -243 -407 -298 -498 -55 -91 -119 -198 -143
-237 l-43 -73 689 0 c380 0 690 4 690 8 0 4 -26 50 -58 102 -33 52 -132 214
-222 360 -296 483 -412 670 -415 670 -1 0 -91 -150 -200 -332z"/>
</g>
</svg>
